<svg width="35" height="35" viewBox="0 0 35 35" fill="none" xmlns="http://www.w3.org/2000/svg">
<g clip-path="url(#clip0_487_73)">
<mask id="mask0_487_73" style="mask-type:luminance" maskUnits="userSpaceOnUse" x="0" y="0" width="35" height="35">
<path d="M0 0.000236511H34.2857V34.2859H0V0.000236511Z" fill="white"/>
</mask>
<g mask="url(#mask0_487_73)">
<path d="M0.667969 10.4014H11.1743H31.1715" stroke="#263238" stroke-width="1.28571" stroke-miterlimit="10" stroke-linecap="round" stroke-linejoin="round"/>
<path d="M6.25864 7.55182C7.1356 7.55182 7.85118 6.83852 7.85118 5.96202C7.85118 5.08552 7.1356 4.37222 6.25864 4.37222C5.38362 4.37222 4.66797 5.08552 4.66797 5.96202C4.66797 6.83852 5.38362 7.55182 6.25864 7.55182Z" stroke="#263238" stroke-width="1.28571" stroke-miterlimit="10" stroke-linecap="round" stroke-linejoin="round"/>
<path d="M20.0829 4.37222H26.0735C26.9485 4.37222 27.6642 5.08747 27.6642 5.96202C27.6642 6.83664 26.9485 7.55182 26.0735 7.55182H20.0829C19.2078 7.55182 18.4922 6.83664 18.4922 5.96202C18.4922 5.08747 19.2078 4.37222 20.0829 4.37222Z" stroke="#263238" stroke-width="1.28571" stroke-miterlimit="10" stroke-linecap="round" stroke-linejoin="round"/>
<path d="M12.1317 7.55182C13.0086 7.55182 13.7242 6.83852 13.7242 5.96202C13.7242 5.08552 13.0086 4.37222 12.1317 4.37222C11.2567 4.37222 10.541 5.08552 10.541 5.96202C10.541 6.83852 11.2567 7.55182 12.1317 7.55182Z" stroke="#263238" stroke-width="1.28571" stroke-miterlimit="10" stroke-linecap="round" stroke-linejoin="round"/>
<path d="M10.8734 15.5522L9.5332 21.1602" stroke="#263238" stroke-width="1.28571" stroke-miterlimit="10" stroke-linecap="round" stroke-linejoin="round"/>
<path d="M13.9609 20.6536L15.8572 18.5249C15.9407 18.432 15.9407 18.2802 15.8572 18.1873L13.9609 16.0586" stroke="#263238" stroke-width="1.28571" stroke-miterlimit="10" stroke-linecap="round" stroke-linejoin="round"/>
<path d="M6.44719 20.6536L4.55096 18.5249C4.46739 18.432 4.46739 18.2802 4.55096 18.1873L6.44719 16.0586" stroke="#263238" stroke-width="1.28571" stroke-miterlimit="10" stroke-linecap="round" stroke-linejoin="round"/>
<path d="M27.0859 18.5116C27.8186 18.6748 28.5038 18.9631 29.1208 19.3501L29.6693 18.8038C29.9939 18.4775 30.5273 18.4775 30.8538 18.8038L31.7174 19.667C32.0439 19.9933 32.0439 20.5264 31.7174 20.8509L31.1707 21.3991C31.5561 22.01 31.8408 22.6892 32.006 23.4139H32.7747C33.236 23.4139 33.6137 23.7915 33.6137 24.2506V25.4743C33.6137 25.9333 33.236 26.3109 32.7747 26.3109H32.0022C31.837 27.0318 31.5523 27.7072 31.1707 28.3143L31.7174 28.8607C32.0439 29.187 32.0439 29.7201 31.7174 30.0445L30.8538 30.9096C30.5273 31.236 29.9939 31.236 29.6693 30.9096L29.1208 30.3632C28.5114 30.7465 27.8338 31.031 27.1087 31.1961V31.9739C27.1087 32.435 26.7309 32.8125 26.2716 32.8125H25.0473C24.5879 32.8125 24.2102 32.435 24.2102 31.9739V31.1942C23.4889 31.031 22.8112 30.7446 22.2019 30.3632L21.6552 30.9096C21.3287 31.236 20.7954 31.236 20.4708 30.9096L19.6053 30.0445C19.2806 29.7201 19.2806 29.187 19.6053 28.8607L20.1538 28.3143C19.7704 27.7072 19.4857 27.0318 19.3205 26.3109H18.5442C18.083 26.3109 17.707 25.9333 17.707 25.4743V24.2506C17.707 23.7915 18.083 23.4139 18.5442 23.4139H19.3187C19.4819 22.6968 19.7628 22.0252 20.1405 21.42L19.5901 20.8679C19.2636 20.5435 19.2636 20.0104 19.5901 19.6841L20.4537 18.8208C20.7802 18.4945 21.3136 18.4945 21.6382 18.8208L22.1829 19.3635C22.7904 18.9783 23.4661 18.6918 24.1874 18.523V17.7509C24.1874 17.2898 24.5632 16.9123 25.0245 16.9123H26.2469C26.7082 16.9123 27.0859 17.2898 27.0859 17.7509V18.5116Z" stroke="#263238" stroke-width="1.28571" stroke-miterlimit="10" stroke-linecap="round" stroke-linejoin="round"/>
<path d="M25.6598 21.4124C27.5656 21.4124 29.1107 22.9568 29.1107 24.8634C29.1107 26.7682 27.5656 28.3124 25.6598 28.3124C23.7522 28.3124 22.207 26.7682 22.207 24.8634C22.207 22.9568 23.7522 21.4124 25.6598 21.4124Z" stroke="#263238" stroke-width="1.28571" stroke-miterlimit="10" stroke-linecap="round" stroke-linejoin="round"/>
<path d="M7.12553 26.311H3.16212C1.79176 26.311 0.667969 24.9697 0.667969 23.3325V4.45182C0.667969 2.81274 1.78975 1.47332 3.16212 1.47332H6.05116H28.6773C30.0497 1.47332 31.1715 2.81461 31.1715 4.45182V19.1208M18.5449 26.311H13.1105" stroke="#263238" stroke-width="1.28571" stroke-miterlimit="10" stroke-linecap="round" stroke-linejoin="round"/>
<path d="M10.125 26.311H10.1383" stroke="#263238" stroke-width="1.28571" stroke-miterlimit="10" stroke-linecap="round" stroke-linejoin="round"/>
</g>
</g>
<defs>
<clipPath id="clip0_487_73">
<rect width="34.2857" height="34.2857" fill="white"/>
</clipPath>
</defs>
</svg>
