<svg width="1442" height="775" viewBox="0 0 1442 775" fill="none" xmlns="http://www.w3.org/2000/svg">
<g clip-path="url(#clip0_331_358)">
<rect width="1442" height="775" fill="#222D32"/>
<g opacity="0.35">
<line x1="-21.4277" y1="522.878" x2="1419.94" y2="522.878" stroke="white" stroke-opacity="0.09" stroke-width="1.20214"/>
<line x1="-21.4277" y1="215.13" x2="1419.94" y2="215.13" stroke="white" stroke-opacity="0.09" stroke-width="1.20214"/>
<line x1="-21.4277" y1="369.004" x2="1419.94" y2="369.004" stroke="white" stroke-opacity="0.09" stroke-width="1.20214"/>
<line x1="-21.4277" y1="676.75" x2="1419.94" y2="676.75" stroke="white" stroke-opacity="0.09" stroke-width="1.20214"/>
<line x1="-21.4277" y1="61.2556" x2="1419.94" y2="61.2556" stroke="white" stroke-opacity="0.09" stroke-width="1.20214"/>
<line x1="-21.4277" y1="445.941" x2="1419.94" y2="445.941" stroke="white" stroke-opacity="0.09" stroke-width="1.20214"/>
<line x1="-21.4277" y1="753.688" x2="1419.94" y2="753.688" stroke="white" stroke-opacity="0.09" stroke-width="1.20214"/>
<line x1="-21.4277" y1="138.193" x2="1419.94" y2="138.193" stroke="white" stroke-opacity="0.09" stroke-width="1.20214"/>
<line x1="-21.4277" y1="292.065" x2="1419.94" y2="292.065" stroke="white" stroke-opacity="0.09" stroke-width="1.20214"/>
<line x1="-21.4277" y1="599.815" x2="1419.94" y2="599.815" stroke="white" stroke-opacity="0.09" stroke-width="1.20214"/>
<line x1="23.6519" y1="-119.665" x2="23.6518" y2="993.516" stroke="white" stroke-opacity="0.09" stroke-width="1.20214"/>
<line x1="639.152" y1="-119.665" x2="639.152" y2="993.516" stroke="white" stroke-opacity="0.09" stroke-width="1.20214"/>
<line x1="331.402" y1="-119.665" x2="331.402" y2="993.516" stroke="white" stroke-opacity="0.09" stroke-width="1.20214"/>
<line x1="946.898" y1="-119.665" x2="946.898" y2="993.516" stroke="white" stroke-opacity="0.09" stroke-width="1.20214"/>
<line x1="1254.65" y1="-119.665" x2="1254.65" y2="993.516" stroke="white" stroke-opacity="0.09" stroke-width="1.20214"/>
<line x1="177.527" y1="-119.665" x2="177.527" y2="993.516" stroke="white" stroke-opacity="0.09" stroke-width="1.20214"/>
<line x1="793.023" y1="-119.665" x2="793.023" y2="993.516" stroke="white" stroke-opacity="0.09" stroke-width="1.20214"/>
<line x1="485.279" y1="-119.665" x2="485.279" y2="993.516" stroke="white" stroke-opacity="0.09" stroke-width="1.20214"/>
<line x1="1100.77" y1="-119.665" x2="1100.77" y2="993.516" stroke="white" stroke-opacity="0.09" stroke-width="1.20214"/>
<line x1="1408.52" y1="-119.665" x2="1408.52" y2="993.516" stroke="white" stroke-opacity="0.09" stroke-width="1.20214"/>
<line x1="100.591" y1="-119.665" x2="100.591" y2="993.516" stroke="white" stroke-opacity="0.09" stroke-width="1.20214"/>
<line x1="716.087" y1="-119.665" x2="716.087" y2="993.516" stroke="white" stroke-opacity="0.09" stroke-width="1.20214"/>
<line x1="408.337" y1="-119.665" x2="408.337" y2="993.516" stroke="white" stroke-opacity="0.09" stroke-width="1.20214"/>
<line x1="1023.84" y1="-119.665" x2="1023.84" y2="993.516" stroke="white" stroke-opacity="0.09" stroke-width="1.20214"/>
<line x1="1331.58" y1="-119.665" x2="1331.58" y2="993.516" stroke="white" stroke-opacity="0.09" stroke-width="1.20214"/>
<line x1="254.464" y1="-119.665" x2="254.464" y2="993.516" stroke="white" stroke-opacity="0.09" stroke-width="1.20214"/>
<line x1="869.96" y1="-119.665" x2="869.96" y2="993.516" stroke="white" stroke-opacity="0.09" stroke-width="1.20214"/>
<line x1="562.212" y1="-119.665" x2="562.212" y2="993.516" stroke="white" stroke-opacity="0.09" stroke-width="1.20214"/>
<line x1="1177.7" y1="-119.665" x2="1177.7" y2="993.516" stroke="white" stroke-opacity="0.09" stroke-width="1.20214"/>
</g>
</g>
<defs>
<clipPath id="clip0_331_358">
<rect width="1442" height="775" fill="white"/>
</clipPath>
</defs>
</svg>
