<svg width="134" height="39" viewBox="0 0 134 39" fill="none" xmlns="http://www.w3.org/2000/svg">
<path d="M3.30548 29.3367H0V3.22777H4.63527L20.3549 21.1606V3.22777H23.6422V29.3367H19.0069L3.30548 11.4222V29.3367Z" fill="white"/>
<path d="M50.6253 18.8198C50.6253 19.9085 50.4816 20.9288 50.1941 21.8841C49.9067 22.8395 49.5086 23.7214 48.9998 24.5317C48.491 25.342 47.8765 26.0706 47.1579 26.7158C46.4393 27.3627 45.6514 27.9095 44.7957 28.3564C43.94 28.8032 43.0232 29.1483 42.0469 29.39C41.0706 29.6318 40.0679 29.7518 39.0371 29.7518C38.0063 29.7518 37.0069 29.6318 36.0372 29.39C35.0676 29.1483 34.154 28.8048 33.2984 28.3564C32.4427 27.9095 31.6547 27.3627 30.9361 26.7158C30.2175 26.0689 29.603 25.342 29.0942 24.5317C28.5854 23.7214 28.1873 22.8361 27.8999 21.8758C27.6125 20.9155 27.4688 19.8968 27.4688 18.8214C27.4688 17.7461 27.6125 16.7274 27.8999 15.7654C28.1873 14.8051 28.5854 13.9198 29.0942 13.1095C29.603 12.2992 30.2175 11.5706 30.9361 10.9237C31.6547 10.2768 32.4427 9.72999 33.2984 9.28317C34.154 8.83635 35.0676 8.49123 36.0372 8.24949C37.0069 8.00774 38.008 7.8877 39.0371 7.8877C40.0662 7.8877 41.069 8.0094 42.0469 8.24949C43.0232 8.49123 43.9383 8.83635 44.7957 9.28317C45.6514 9.72999 46.4393 10.2768 47.1579 10.9237C47.8765 11.5706 48.491 12.2992 48.9998 13.1095C49.5086 13.9198 49.9067 14.8051 50.1941 15.7654C50.4816 16.7257 50.6253 17.7444 50.6253 18.8214V18.8198ZM44.4455 18.8198C44.4455 18.2396 44.4124 17.626 44.3464 16.9791C44.2803 16.3322 44.1696 15.6987 44.0143 15.0752C43.859 14.4533 43.6459 13.8547 43.3767 13.2795C43.1074 12.706 42.7754 12.2042 42.3806 11.774C41.9858 11.3455 41.5117 11.0004 40.9616 10.7403C40.4098 10.4802 39.7689 10.3502 39.0388 10.3502C38.3086 10.3502 37.7271 10.4836 37.1886 10.7487C36.6501 11.0154 36.1793 11.3689 35.7779 11.809C35.3765 12.2509 35.0411 12.761 34.7719 13.3412C34.5026 13.9214 34.2829 14.5233 34.1161 15.1452C33.9476 15.7671 33.8286 16.3956 33.7576 17.0308C33.6866 17.666 33.6502 18.2612 33.6502 18.8164C33.6502 19.3716 33.6866 19.9685 33.7576 20.602C33.8286 21.2356 33.9492 21.8691 34.1161 22.496C34.2829 23.1246 34.5026 23.7264 34.7719 24.3C35.0411 24.8735 35.3765 25.382 35.7779 25.8222C36.1793 26.264 36.6484 26.6174 37.1886 26.8825C37.7271 27.1493 38.345 27.281 39.0388 27.281C39.7326 27.281 40.3917 27.1509 40.9434 26.8909C41.4935 26.6308 41.9709 26.284 42.3723 25.8488C42.7737 25.4137 43.1058 24.9118 43.3701 24.3433C43.6327 23.7748 43.8458 23.1763 44.0077 22.5477C44.1696 21.9192 44.2836 21.2839 44.3497 20.6437C44.4157 20.0035 44.4488 19.3933 44.4488 18.8131L44.4455 18.8198Z" fill="white"/>
<path d="M60.5961 23.2813C60.5961 24.7201 60.416 26.1789 60.0575 27.6594C59.6991 29.14 59.1919 30.5721 58.5394 31.9559C57.8869 33.3397 57.1089 34.6402 56.2036 35.8539C55.3 37.0693 54.3023 38.118 53.212 39L50.8398 37.5495C51.4511 36.7042 51.983 35.7455 52.4389 34.6752C52.8932 33.6048 53.2748 32.4961 53.5804 31.3474C53.886 30.1987 54.1156 29.0416 54.2725 27.8745C54.4278 26.7091 54.5054 25.5987 54.5054 24.5467V8.39453H60.5961V23.2813Z" fill="#C3ED5B"/>
<path d="M57.56 0.333447C57.9664 0.333447 58.3546 0.413475 58.713 0.568528C59.0748 0.726915 59.3936 0.943656 59.6612 1.21542C59.9305 1.48718 60.1452 1.80895 60.3022 2.17241C60.4574 2.5342 60.5351 2.926 60.5351 3.33614C60.5351 3.74628 60.4558 4.14308 60.3005 4.51154C60.1436 4.88167 59.9288 5.20511 59.6612 5.47687C59.392 5.74863 59.0731 5.96537 58.713 6.12376C58.3562 6.28048 57.968 6.35884 57.56 6.35884C57.152 6.35884 56.7605 6.27881 56.3954 6.12209C56.0287 5.96537 55.7082 5.74696 55.4389 5.47687C55.1713 5.20678 54.9566 4.88167 54.7996 4.51154C54.6444 4.14475 54.5651 3.74962 54.5651 3.33781C54.5651 2.926 54.6444 2.5342 54.798 2.17408C54.9549 1.80895 55.1697 1.48718 55.4373 1.21708C55.7049 0.94699 56.027 0.73025 56.3937 0.571862C56.7588 0.415142 57.1503 0.335115 57.5583 0.335115M57.56 0C57.1041 0 56.6729 0.0883636 56.2665 0.263423C55.8585 0.438483 55.505 0.678565 55.206 0.980335C54.907 1.2821 54.6708 1.63556 54.4973 2.0407C54.3239 2.44584 54.2363 2.87765 54.2363 3.33614C54.2363 3.79463 54.3222 4.23145 54.4973 4.64159C54.6708 5.05339 54.907 5.41018 55.206 5.71195C55.505 6.01372 55.8585 6.25381 56.2665 6.42886C56.6729 6.60392 57.1041 6.69229 57.56 6.69229C58.0159 6.69229 58.4438 6.60559 58.8435 6.42886C59.2449 6.25381 59.5951 6.01539 59.8941 5.71195C60.1931 5.40852 60.4294 5.05339 60.6045 4.64159C60.7779 4.23145 60.8655 3.7963 60.8655 3.33614C60.8655 2.87598 60.7779 2.44417 60.6045 2.0407C60.431 1.63556 60.1931 1.2821 59.8941 0.980335C59.5951 0.678565 59.2449 0.44015 58.8435 0.263423C58.4421 0.0883636 58.0143 0 57.56 0Z" fill="#C3ED5B"/>
<path d="M85.5497 15.2669C85.5497 16.1255 85.4109 16.8891 85.1367 17.561C84.8608 18.2312 84.4875 18.8214 84.0134 19.3283C83.5393 19.8351 82.9925 20.2653 82.3698 20.6154C81.747 20.9655 81.0829 21.2523 80.3759 21.4757C79.6689 21.7007 78.942 21.8591 78.1937 21.9558C77.4454 22.0525 76.7169 22.1009 76.0115 22.1009C75.1129 22.1009 74.2275 22.0375 73.352 21.9108C72.4781 21.7841 71.6158 21.5824 70.7651 21.3039C70.8972 22.1026 71.107 22.8611 71.3944 23.5797C71.6819 24.2983 72.0651 24.9285 72.5442 25.4654C73.0232 26.0039 73.613 26.429 74.3134 26.7441C75.0138 27.0592 75.8431 27.216 76.8012 27.216C77.4355 27.216 78.0401 27.1193 78.615 26.9259C79.1898 26.7325 79.7168 26.4607 80.1958 26.1089C80.6749 25.7588 81.0961 25.342 81.4629 24.8585C81.8279 24.375 82.1236 23.8365 82.3516 23.2446L84.9748 24.2233C84.58 25.1786 84.0382 26.0039 83.3493 26.6975C82.6605 27.3927 81.8825 27.9679 81.0135 28.4197C80.1446 28.8732 79.2229 29.2083 78.2466 29.4267C77.2703 29.6435 76.3039 29.7535 75.3458 29.7535C73.7649 29.7535 72.303 29.4851 70.9633 28.9466C69.6219 28.408 68.4656 27.6561 67.4959 26.6891C66.5262 25.7221 65.7647 24.5667 65.2146 23.2263C64.6629 21.8841 64.3887 20.4153 64.3887 18.8198C64.3887 17.2242 64.6645 15.7554 65.2146 14.4133C65.7647 13.0711 66.5262 11.9174 67.4959 10.9504C68.4656 9.98341 69.6219 9.23148 70.9633 8.69297C72.3046 8.15612 73.7649 7.88602 75.3458 7.88602C76.1123 7.88602 76.897 7.94104 77.6998 8.04941C78.5026 8.15778 79.2807 8.33118 80.0356 8.56626C80.7905 8.80134 81.5025 9.10811 82.1732 9.48157C82.8439 9.8567 83.427 10.3185 83.9242 10.8687C84.4214 11.4189 84.8162 12.0558 85.1103 12.781C85.4043 13.5063 85.5497 14.3349 85.5497 15.2652V15.2669ZM70.585 19.4C71.3267 19.57 72.0701 19.7017 72.8134 19.7984C73.5551 19.8951 74.3051 19.9435 75.0584 19.9435C75.8117 19.9435 76.5831 19.8685 77.2587 19.7167C77.936 19.5667 78.5225 19.3116 79.0197 18.9548C79.5169 18.598 79.9084 18.1245 80.1958 17.531C80.4833 16.9391 80.627 16.2022 80.627 15.3186C80.627 14.605 80.5312 13.9531 80.3396 13.3612C80.1479 12.7694 79.8638 12.2609 79.4855 11.8374C79.1089 11.4139 78.6447 11.0855 78.093 10.8487C77.5412 10.6136 76.9019 10.4953 76.1701 10.4953C75.4879 10.4953 74.8734 10.622 74.3282 10.8754C73.7831 11.1288 73.3041 11.4706 72.8911 11.8991C72.4781 12.3275 72.1246 12.8277 71.8305 13.3946C71.5365 13.9631 71.2953 14.555 71.1037 15.1718C70.9121 15.7887 70.775 16.4106 70.6907 17.0392C70.6065 17.6677 70.5652 18.2596 70.5652 18.8164V19.1065C70.5652 19.2032 70.5718 19.2999 70.5834 19.3966L70.585 19.4Z" fill="white"/>
<path d="M109.3 15.2669C109.3 16.1255 109.161 16.8891 108.887 17.561C108.611 18.2312 108.238 18.8214 107.763 19.3283C107.289 19.8351 106.743 20.2653 106.12 20.6154C105.497 20.9655 104.833 21.2523 104.126 21.4757C103.419 21.7007 102.692 21.8591 101.944 21.9558C101.195 22.0525 100.467 22.1009 99.7615 22.1009C98.8629 22.1009 97.9775 22.0375 97.102 21.9108C96.2281 21.7841 95.3658 21.5824 94.5151 21.3039C94.6472 22.1026 94.857 22.8611 95.1444 23.5797C95.4319 24.2983 95.8151 24.9285 96.2942 25.4654C96.7732 26.0039 97.363 26.429 98.0634 26.7441C98.7638 27.0592 99.5931 27.216 100.551 27.216C101.185 27.216 101.79 27.1193 102.365 26.9259C102.94 26.7325 103.467 26.4607 103.946 26.1089C104.425 25.7588 104.846 25.342 105.213 24.8585C105.578 24.375 105.874 23.8365 106.102 23.2446L108.725 24.2233C108.33 25.1786 107.788 26.0039 107.099 26.6975C106.411 27.3927 105.632 27.9679 104.764 28.4197C103.895 28.8732 102.973 29.2083 101.997 29.4267C101.02 29.6435 100.054 29.7535 99.0958 29.7535C97.5149 29.7535 96.053 29.4851 94.7133 28.9466C93.3719 28.408 92.2156 27.6561 91.2459 26.6891C90.2762 25.7221 89.5147 24.5667 88.9646 23.2263C88.4129 21.8841 88.1387 20.4153 88.1387 18.8198C88.1387 17.2242 88.4145 15.7554 88.9646 14.4133C89.5147 13.0711 90.2762 11.9174 91.2459 10.9504C92.2156 9.98341 93.3719 9.23148 94.7133 8.69297C96.0546 8.15612 97.5149 7.88602 99.0958 7.88602C99.8623 7.88602 100.647 7.94104 101.45 8.04941C102.253 8.15778 103.031 8.33118 103.786 8.56626C104.541 8.80134 105.253 9.10811 105.923 9.48157C106.594 9.8567 107.177 10.3185 107.674 10.8687C108.171 11.4189 108.566 12.0558 108.86 12.781C109.154 13.5063 109.3 14.3349 109.3 15.2652V15.2669ZM94.335 19.4C95.0767 19.57 95.8201 19.7017 96.5634 19.7984C97.3051 19.8951 98.0551 19.9435 98.8084 19.9435C99.5617 19.9435 100.333 19.8685 101.009 19.7167C101.686 19.5667 102.272 19.3116 102.77 18.9548C103.267 18.598 103.658 18.1245 103.946 17.531C104.233 16.9391 104.377 16.2022 104.377 15.3186C104.377 14.605 104.281 13.9531 104.09 13.3612C103.898 12.7694 103.614 12.2609 103.236 11.8374C102.859 11.4139 102.395 11.0855 101.843 10.8487C101.291 10.6136 100.652 10.4953 99.9201 10.4953C99.2379 10.4953 98.6234 10.622 98.0782 10.8754C97.5331 11.1288 97.0541 11.4706 96.6411 11.8991C96.2281 12.3275 95.8746 12.8277 95.5805 13.3946C95.2865 13.9631 95.0453 14.555 94.8537 15.1718C94.6621 15.7887 94.525 16.4106 94.4407 17.0392C94.3565 17.6677 94.3152 18.2596 94.3152 18.8164V19.1065C94.3152 19.2032 94.3218 19.2999 94.3334 19.3966L94.335 19.4Z" fill="white"/>
<path d="M134.001 29.3367H131.665L128.971 24.7851C128.706 25.5471 128.345 26.2356 127.884 26.8525C127.423 27.4694 126.889 27.9979 126.285 28.4397C125.68 28.8799 125.016 29.2217 124.291 29.4634C123.566 29.7052 122.802 29.8252 122 29.8252C120.419 29.8252 119.005 29.5418 117.759 28.9732C116.514 28.4047 115.46 27.6278 114.597 26.6424C113.735 25.6571 113.076 24.5 112.622 23.1696C112.166 21.8408 111.939 20.4136 111.939 18.8915C111.939 17.3693 112.167 15.9421 112.622 14.6117C113.076 13.2829 113.735 12.1275 114.597 11.1488C115.46 10.1701 116.514 9.39655 117.759 8.82802C119.005 8.25949 120.419 7.97606 122 7.97606C123.209 7.97606 124.321 8.21114 125.332 8.68297C126.344 9.1548 127.21 9.89172 127.927 10.8954V0.688568H133.999V29.3367H134.001ZM127.894 18.8931C127.894 18.4096 127.857 17.8778 127.786 17.2976C127.714 16.7174 127.6 16.1305 127.444 15.5386C127.289 14.9468 127.084 14.3716 126.833 13.8164C126.582 13.2612 126.273 12.7644 125.908 12.3292C125.543 11.8941 125.117 11.5473 124.633 11.2872C124.149 11.0271 123.594 10.8971 122.971 10.8971C122.289 10.8971 121.696 11.0204 121.192 11.2689C120.688 11.5173 120.258 11.8491 119.898 12.2659C119.54 12.6827 119.243 13.1628 119.01 13.708C118.775 14.2515 118.593 14.8201 118.461 15.4119C118.329 16.0038 118.237 16.599 118.182 17.1975C118.128 17.7961 118.101 18.3613 118.101 18.8931C118.101 19.425 118.128 19.9902 118.182 20.5887C118.237 21.1872 118.329 21.7824 118.461 22.3743C118.593 22.9662 118.775 23.538 119.01 24.0882C119.243 24.6384 119.54 25.1219 119.898 25.5387C120.258 25.9555 120.69 26.289 121.192 26.5357C121.696 26.7825 122.287 26.9075 122.971 26.9075C123.655 26.9075 124.253 26.7875 124.767 26.5457C125.282 26.304 125.721 25.9739 126.086 25.5571C126.452 25.1403 126.751 24.6634 126.985 24.1249C127.218 23.5864 127.401 23.0195 127.534 22.421C127.666 21.8225 127.758 21.2206 127.813 20.6171C127.867 20.0135 127.894 19.4383 127.894 18.8948V18.8931Z" fill="white"/>
</svg>
