<?xml version="1.0" encoding="UTF-8"?>
<svg id="Layer_2" data-name="Layer 2" xmlns="http://www.w3.org/2000/svg" viewBox="0 0 277.96 80.16">
  <defs>
    <style>
      .cls-1 {
        stroke-width: 0px;
      }
    </style>
  </defs>
  <g id="Layer_1-2" data-name="Layer 1">
    <path class="cls-1" d="m6.86,60.29H0V6.63h9.61l32.61,36.85V6.63h6.82v53.66h-9.61L6.86,23.48v36.82Z"/>
    <path class="cls-1" d="m105.01,38.68c0,2.24-.3,4.34-.89,6.3-.6,1.96-1.42,3.78-2.48,5.44-1.06,1.67-2.33,3.16-3.82,4.49-1.49,1.33-3.12,2.45-4.9,3.37-1.78.92-3.68,1.63-5.7,2.12-2.03.5-4.11.75-6.24.75s-4.21-.25-6.22-.75c-2.01-.5-3.91-1.2-5.68-2.12-1.78-.92-3.41-2.04-4.9-3.37-1.49-1.33-2.76-2.83-3.82-4.49-1.06-1.66-1.88-3.48-2.48-5.46-.6-1.97-.89-4.07-.89-6.28s.3-4.3.89-6.28c.6-1.98,1.42-3.79,2.48-5.46,1.06-1.66,2.33-3.16,3.82-4.49,1.49-1.33,3.12-2.45,4.9-3.37,1.78-.92,3.67-1.63,5.68-2.12,2.01-.5,4.09-.75,6.22-.75s4.22.25,6.24.75c2.02.5,3.92,1.21,5.7,2.12,1.78.92,3.41,2.04,4.9,3.37,1.49,1.33,2.76,2.83,3.82,4.49,1.06,1.66,1.88,3.48,2.48,5.46s.89,4.07.89,6.28Zm-12.82,0c0-1.19-.07-2.45-.21-3.78-.14-1.33-.37-2.63-.69-3.91-.32-1.28-.76-2.51-1.32-3.69-.56-1.18-1.25-2.21-2.07-3.09-.82-.88-1.8-1.59-2.94-2.12-1.14-.53-2.47-.8-3.99-.8s-2.72.27-3.84.82c-1.12.55-2.09,1.27-2.93,2.18-.83.91-1.53,1.96-2.09,3.15s-1.01,2.43-1.36,3.71c-.35,1.28-.6,2.57-.75,3.88-.15,1.3-.22,2.53-.22,3.67s.07,2.37.22,3.67c.15,1.3.4,2.6.75,3.89.35,1.29.8,2.53,1.36,3.71s1.25,2.22,2.09,3.13c.83.91,1.81,1.63,2.93,2.18,1.12.55,2.4.82,3.84.82s2.81-.27,3.95-.8c1.14-.53,2.13-1.25,2.96-2.14.83-.89,1.52-1.92,2.07-3.09.55-1.17.99-2.4,1.32-3.69.34-1.29.57-2.6.71-3.91.14-1.32.21-2.57.21-3.76Z"/>
    <path class="cls-1" d="m125.69,47.85c0,2.96-.37,5.96-1.12,9-.75,3.04-1.79,5.99-3.15,8.83-1.35,2.84-2.97,5.52-4.84,8.01-1.88,2.5-3.94,4.65-6.2,6.47l-4.92-2.98c1.27-1.74,2.37-3.71,3.32-5.91.94-2.2,1.73-4.48,2.37-6.84.63-2.36,1.11-4.74,1.44-7.14.32-2.4.48-4.68.48-6.84V17.25h12.63v30.59Z"/>
    <path class="cls-1" d="m119.4,2c.67,0,1.28.12,1.87.38.61.26,1.12.61,1.56,1.05.45.45.79.96,1.05,1.56.25.59.38,1.2.38,1.87s-.12,1.3-.38,1.9c-.26.61-.6,1.13-1.05,1.57-.45.45-.96.79-1.56,1.05-.58.25-1.2.38-1.87.38s-1.3-.12-1.9-.38c-.61-.26-1.13-.6-1.57-1.05-.44-.44-.78-.95-1.05-1.57-.26-.6-.38-1.22-.38-1.9s.12-1.29.38-1.87c.26-.6.6-1.11,1.05-1.56.44-.44.96-.78,1.57-1.05.6-.26,1.22-.38,1.9-.38m0-2c-.94,0-1.84.18-2.68.54-.84.36-1.58.85-2.2,1.47s-1.11,1.35-1.47,2.18c-.36.83-.54,1.72-.54,2.66s.18,1.84.54,2.68c.36.84.85,1.58,1.47,2.2.62.62,1.35,1.11,2.2,1.47.84.36,1.74.54,2.68.54s1.83-.18,2.66-.54c.83-.36,1.56-.85,2.18-1.47s1.11-1.35,1.47-2.2c.36-.84.54-1.74.54-2.68s-.18-1.83-.54-2.66c-.36-.83-.85-1.56-1.47-2.18-.62-.62-1.35-1.11-2.18-1.47-.83-.36-1.72-.54-2.66-.54h0Z"/>
    <path class="cls-1" d="m177.45,31.38c0,1.76-.29,3.34-.86,4.71-.57,1.38-1.35,2.59-2.33,3.63-.98,1.04-2.12,1.93-3.41,2.65-1.29.72-2.67,1.31-4.14,1.77-1.47.46-2.98.79-4.53.99-1.55.2-3.06.3-4.53.3-1.86,0-3.7-.13-5.52-.39-1.81-.26-3.6-.68-5.37-1.25.27,1.64.71,3.2,1.3,4.68.6,1.48,1.39,2.77,2.39,3.88.99,1.11,2.22,1.98,3.67,2.63s3.17.97,5.16.97c1.32,0,2.57-.2,3.76-.6,1.19-.4,2.29-.96,3.28-1.68.99-.72,1.87-1.58,2.63-2.57.76-.99,1.37-2.1,1.84-3.32l5.44,2.01c-.82,1.96-1.94,3.66-3.37,5.09-1.43,1.43-3.04,2.61-4.84,3.54-1.8.93-3.71,1.62-5.74,2.07-2.03.45-4.03.67-6.02.67-3.28,0-6.31-.55-9.09-1.66-2.78-1.11-5.18-2.65-7.19-4.64-2.01-1.99-3.59-4.36-4.73-7.12-1.14-2.76-1.71-5.78-1.71-9.06s.57-6.3,1.71-9.06c1.14-2.76,2.72-5.13,4.73-7.12,2.01-1.99,4.41-3.53,7.19-4.64,2.78-1.1,5.81-1.66,9.09-1.66,1.59,0,3.22.11,4.88.34,1.66.22,3.28.58,4.84,1.06,1.57.48,3.04,1.11,4.43,1.88,1.39.77,2.6,1.72,3.63,2.85,1.03,1.13,1.85,2.44,2.46,3.93.61,1.49.91,3.19.91,5.1Zm-31.04,8.5c1.54.35,3.08.62,4.62.82,1.54.2,3.09.3,4.66.3s3.16-.15,4.56-.47c1.4-.31,2.62-.83,3.65-1.56,1.03-.73,1.84-1.71,2.44-2.93.6-1.22.89-2.73.89-4.55,0-1.47-.2-2.81-.6-4.02-.4-1.22-.99-2.26-1.77-3.13-.78-.87-1.75-1.55-2.89-2.03-1.14-.48-2.47-.73-3.99-.73-1.42,0-2.69.26-3.82.78-1.13.52-2.12,1.22-2.98,2.1-.86.88-1.59,1.91-2.2,3.07-.61,1.17-1.11,2.38-1.51,3.65s-.68,2.55-.86,3.84c-.17,1.29-.26,2.51-.26,3.65v.6c0,.2.01.4.04.6Z"/>
    <path class="cls-1" d="m226.72,31.38c0,1.76-.29,3.34-.86,4.71-.57,1.38-1.35,2.59-2.33,3.63-.98,1.04-2.12,1.93-3.41,2.65-1.29.72-2.67,1.31-4.14,1.77-1.47.46-2.98.79-4.53.99-1.55.2-3.06.3-4.53.3-1.86,0-3.7-.13-5.52-.39-1.81-.26-3.6-.68-5.37-1.25.27,1.64.71,3.2,1.3,4.68.6,1.48,1.39,2.77,2.39,3.88.99,1.11,2.22,1.98,3.67,2.63s3.17.97,5.16.97c1.32,0,2.57-.2,3.76-.6,1.19-.4,2.29-.96,3.28-1.68.99-.72,1.87-1.58,2.63-2.57.76-.99,1.37-2.1,1.84-3.32l5.44,2.01c-.82,1.96-1.94,3.66-3.37,5.09-1.43,1.43-3.04,2.61-4.84,3.54-1.8.93-3.71,1.62-5.74,2.07-2.03.45-4.03.67-6.02.67-3.28,0-6.31-.55-9.09-1.66-2.78-1.11-5.18-2.65-7.19-4.64-2.01-1.99-3.59-4.36-4.73-7.12-1.14-2.76-1.71-5.78-1.71-9.06s.57-6.3,1.71-9.06c1.14-2.76,2.72-5.13,4.73-7.12,2.01-1.99,4.41-3.53,7.19-4.64,2.78-1.1,5.81-1.66,9.09-1.66,1.59,0,3.22.11,4.88.34,1.66.22,3.28.58,4.84,1.06,1.57.48,3.04,1.11,4.43,1.88,1.39.77,2.6,1.72,3.63,2.85,1.03,1.13,1.85,2.44,2.46,3.93.61,1.49.91,3.19.91,5.1Zm-31.04,8.5c1.54.35,3.08.62,4.62.82,1.54.2,3.09.3,4.66.3s3.16-.15,4.56-.47c1.4-.31,2.62-.83,3.65-1.56,1.03-.73,1.84-1.71,2.44-2.93.6-1.22.89-2.73.89-4.55,0-1.47-.2-2.81-.6-4.02-.4-1.22-.99-2.26-1.77-3.13-.78-.87-1.75-1.55-2.89-2.03-1.14-.48-2.47-.73-3.99-.73-1.42,0-2.69.26-3.82.78-1.13.52-2.12,1.22-2.98,2.1-.86.88-1.59,1.91-2.2,3.07-.61,1.17-1.11,2.38-1.51,3.65s-.68,2.55-.86,3.84c-.17,1.29-.26,2.51-.26,3.65v.6c0,.2.01.4.04.6Z"/>
    <path class="cls-1" d="m277.96,60.29h-4.84l-5.59-9.35c-.55,1.57-1.3,2.98-2.25,4.25-.96,1.27-2.06,2.36-3.32,3.26-1.25.91-2.63,1.61-4.14,2.11-1.5.5-3.09.75-4.75.75-3.28,0-6.21-.58-8.79-1.75-2.58-1.17-4.77-2.76-6.56-4.79-1.79-2.02-3.15-4.4-4.1-7.14-.94-2.73-1.42-5.66-1.42-8.79s.47-6.06,1.42-8.79c.94-2.73,2.31-5.11,4.1-7.12,1.79-2.01,3.97-3.6,6.56-4.77,2.58-1.17,5.52-1.75,8.79-1.75,2.51,0,4.81.48,6.91,1.45,2.1.97,3.89,2.48,5.38,4.55V1.42h12.6v58.88Zm-12.67-21.46c0-.99-.07-2.09-.22-3.28-.15-1.19-.39-2.4-.71-3.61-.32-1.22-.75-2.4-1.27-3.54-.52-1.14-1.16-2.16-1.92-3.06-.76-.89-1.64-1.61-2.65-2.14s-2.16-.8-3.45-.8c-1.42,0-2.65.25-3.69.76-1.04.51-1.94,1.19-2.68,2.05-.75.86-1.36,1.84-1.84,2.96-.48,1.12-.86,2.29-1.14,3.5-.27,1.22-.47,2.44-.58,3.67-.11,1.23-.17,2.39-.17,3.48s.06,2.25.17,3.48c.11,1.23.3,2.45.58,3.67.27,1.22.65,2.39,1.14,3.52.48,1.13,1.1,2.12,1.84,2.98.75.86,1.64,1.54,2.68,2.05s2.27.76,3.69.76,2.66-.25,3.73-.75c1.07-.5,1.98-1.17,2.74-2.03.76-.86,1.38-1.84,1.86-2.94.48-1.11.86-2.27,1.14-3.5s.47-2.47.58-3.71c.11-1.24.17-2.42.17-3.54Z"/>
  </g>
</svg>