<svg width="39" height="39" viewBox="0 0 39 39" fill="none" xmlns="http://www.w3.org/2000/svg">
<path d="M17.875 27.625H21.125M12.1875 34.125H26.8125C28.1587 34.125 29.25 33.0337 29.25 31.6875V7.3125C29.25 5.96631 28.1587 4.875 26.8125 4.875H12.1875C10.8413 4.875 9.75 5.96631 9.75 7.3125V31.6875C9.75 33.0337 10.8413 34.125 12.1875 34.125Z" stroke="#263238" stroke-width="1.625" stroke-linecap="round"/>
<g clip-path="url(#clip0_487_103)">
<path d="M20.9782 8.96181C20.6329 8.86228 20.2734 9.06337 20.1739 9.40869L17.5739 18.5087C17.4743 18.854 17.6754 19.2135 18.0207 19.3131C18.3661 19.4126 18.7256 19.2115 18.8251 18.8662L21.4251 9.76619C21.5246 9.42087 21.3236 9.06134 20.9782 8.96181ZM22.6154 11.4013C22.3615 11.6552 22.3615 12.0676 22.6154 12.3215L24.4293 14.1374L22.6134 15.9534C22.3595 16.2073 22.3595 16.6196 22.6134 16.8735C22.8673 17.1274 23.2796 17.1274 23.5336 16.8735L25.8086 14.5985C26.0625 14.3446 26.0625 13.9323 25.8086 13.6784L23.5336 11.4034C23.2796 11.1495 22.8673 11.1495 22.6134 11.4034L22.6154 11.4013ZM16.3856 11.4013C16.1317 11.1474 15.7193 11.1474 15.4654 11.4013L13.1904 13.6763C12.9365 13.9302 12.9365 14.3426 13.1904 14.5965L15.4654 16.8715C15.7193 17.1254 16.1317 17.1254 16.3856 16.8715C16.6395 16.6176 16.6395 16.2052 16.3856 15.9513L14.5696 14.1374L16.3856 12.3215C16.6395 12.0676 16.6395 11.6552 16.3856 11.4013Z" fill="#263238"/>
</g>
<defs>
<clipPath id="clip0_487_103">
<rect width="13" height="10.4" fill="white" transform="translate(13 8.9375)"/>
</clipPath>
</defs>
</svg>
