<svg width="35" height="35" viewBox="0 0 35 35" fill="none" xmlns="http://www.w3.org/2000/svg">
<g clip-path="url(#clip0_487_35)">
<path d="M8.33959 30.2368H3.83008" stroke="#263238" stroke-width="1.21875" stroke-miterlimit="10" stroke-linecap="round" stroke-linejoin="round"/>
<path d="M6.07617 14.2064H8.84023" stroke="#263238" stroke-width="1.21875" stroke-miterlimit="10" stroke-linecap="round" stroke-linejoin="round"/>
<path d="M6.07617 16.9124H8.84023" stroke="#263238" stroke-width="1.21875" stroke-miterlimit="10" stroke-linecap="round" stroke-linejoin="round"/>
<path d="M6.07617 19.6179H8.84023" stroke="#263238" stroke-width="1.21875" stroke-miterlimit="10" stroke-linecap="round" stroke-linejoin="round"/>
<path d="M3.32812 14.2064H3.61826" stroke="#263238" stroke-width="1.21875" stroke-miterlimit="10" stroke-linecap="round" stroke-linejoin="round"/>
<path d="M3.32812 16.9124H3.61826" stroke="#263238" stroke-width="1.21875" stroke-miterlimit="10" stroke-linecap="round" stroke-linejoin="round"/>
<path d="M3.32812 19.6179H3.61826" stroke="#263238" stroke-width="1.21875" stroke-miterlimit="10" stroke-linecap="round" stroke-linejoin="round"/>
<path d="M5.70898 0.508041V4.48652" stroke="#263238" stroke-width="1.21875" stroke-miterlimit="10" stroke-linecap="round" stroke-linejoin="round"/>
<path d="M0.824219 0.508041V3.24569C0.824219 3.71193 1.05551 4.02583 1.44835 4.27682C1.6397 4.3991 1.88135 4.48618 2.1817 4.48658C2.44177 4.48692 2.65918 4.42673 2.83888 4.3362C3.29672 4.10566 3.58868 3.75547 3.58868 3.24285V0.508041" stroke="#263238" stroke-width="1.21875" stroke-miterlimit="10" stroke-linecap="round" stroke-linejoin="round"/>
<path d="M16.4531 0.508041L19.2519 4.48652" stroke="#263238" stroke-width="1.21875" stroke-miterlimit="10" stroke-linecap="round" stroke-linejoin="round"/>
<path d="M19.0547 0.508041L16.252 4.48652" stroke="#263238" stroke-width="1.21875" stroke-miterlimit="10" stroke-linecap="round" stroke-linejoin="round"/>
<path d="M11.875 0.508041V3.24569C11.875 3.71193 12.1063 4.02583 12.4991 4.27682C12.6905 4.3991 12.9321 4.48618 13.2325 4.48658C13.4926 4.48692 13.71 4.42673 13.8897 4.3362C14.3475 4.10566 14.6395 3.75547 14.6395 3.24285V0.508041" stroke="#263238" stroke-width="1.21875" stroke-miterlimit="10" stroke-linecap="round" stroke-linejoin="round"/>
<path d="M9.71367 0.508003L8.03125 4.48648" stroke="#263238" stroke-width="1.21875" stroke-miterlimit="10" stroke-linecap="round" stroke-linejoin="round"/>
<path d="M0.824219 7.74201H33.8441" stroke="#263238" stroke-width="1.21875" stroke-miterlimit="10" stroke-linecap="round" stroke-linejoin="round"/>
<path d="M30.3047 0.521545H33.8448" stroke="#263238" stroke-width="1.21875" stroke-miterlimit="10" stroke-linecap="round" stroke-linejoin="round"/>
<path d="M33.8448 2.49725H30.3047" stroke="#263238" stroke-width="1.21875" stroke-miterlimit="10" stroke-linecap="round" stroke-linejoin="round"/>
<path d="M33.8448 4.47282H30.3047" stroke="#263238" stroke-width="1.21875" stroke-miterlimit="10" stroke-linecap="round" stroke-linejoin="round"/>
<path d="M32.4907 34.159H15.8581C15.1102 34.159 14.5039 33.5527 14.5039 32.8048V12.3642C14.5039 11.6163 15.1102 11.01 15.8581 11.01H32.4907C33.2386 11.01 33.8449 11.6163 33.8449 12.3642V32.8048C33.8449 33.5527 33.2386 34.159 32.4907 34.159Z" stroke="#263238" stroke-width="1.21875" stroke-miterlimit="10" stroke-linecap="round" stroke-linejoin="round"/>
<path d="M3.58936 26.3145H2.17839C1.43048 26.3145 0.824219 26.9207 0.824219 27.6686V32.8048C0.824219 33.5527 1.43048 34.1589 2.17839 34.1589H9.99233C10.7402 34.1589 11.3465 33.5527 11.3465 32.8048V27.6686C11.3465 26.9207 10.7402 26.3145 9.99233 26.3145H5.95915" stroke="#263238" stroke-width="1.21875" stroke-miterlimit="10" stroke-linecap="round" stroke-linejoin="round"/>
<path d="M0.824219 16.9415V21.4602C0.824219 22.2081 1.43048 22.8143 2.17839 22.8143H9.99233C10.7402 22.8143 11.3465 22.2081 11.3465 21.4602V12.3642C11.3465 11.6163 10.7402 11.01 9.99233 11.01H2.17839C1.43048 11.01 0.824219 11.6163 0.824219 12.3642V14.5717" stroke="#263238" stroke-width="1.21875" stroke-miterlimit="10" stroke-linecap="round" stroke-linejoin="round"/>
<path d="M19.4941 20.7074C20.0223 22.7989 21.9159 24.347 24.1716 24.347C26.8361 24.347 28.9961 22.187 28.9961 19.5225C28.9961 16.8579 26.8361 14.698 24.1716 14.698C21.916 14.698 20.0224 16.2461 19.4941 18.3376" stroke="#263238" stroke-width="1.21875" stroke-miterlimit="10" stroke-linecap="round" stroke-linejoin="round"/>
<path d="M28.5822 30.6517H19.7636C18.878 30.6517 18.1602 29.9338 18.1602 29.0483C18.1602 28.1627 18.878 27.4449 19.7636 27.4449H28.5822C29.4678 27.4449 30.1856 28.1627 30.1856 29.0483C30.1856 29.9338 29.4678 30.6517 28.5822 30.6517Z" stroke="#263238" stroke-width="1.21875" stroke-miterlimit="10" stroke-linecap="round" stroke-linejoin="round"/>
</g>
<defs>
<clipPath id="clip0_487_35">
<rect width="34.6667" height="34.6667" fill="white"/>
</clipPath>
</defs>
</svg>
